<svg width="82" height="14" viewBox="0 0 82 14" fill="none" xmlns="http://www.w3.org/2000/svg">
<path d="M0.572266 1.04688H1.85059L5.11133 9.16113L8.36523 1.04688H9.65039L5.60352 11H4.60547L0.572266 1.04688ZM0.155273 1.04688H1.2832L1.46777 7.11719V11H0.155273V1.04688ZM8.93262 1.04688H10.0605V11H8.74805V7.11719L8.93262 1.04688ZM16.5479 9.73535V5.92773C16.5479 5.63607 16.4886 5.38314 16.3701 5.16895C16.2562 4.9502 16.083 4.78158 15.8506 4.66309C15.6182 4.5446 15.3311 4.48535 14.9893 4.48535C14.6702 4.48535 14.39 4.54004 14.1484 4.64941C13.9115 4.75879 13.7246 4.90234 13.5879 5.08008C13.4557 5.25781 13.3896 5.44922 13.3896 5.6543H12.125C12.125 5.38997 12.1934 5.12793 12.3301 4.86816C12.4668 4.6084 12.6628 4.3737 12.918 4.16406C13.1777 3.94987 13.4876 3.78125 13.8477 3.6582C14.2122 3.5306 14.6178 3.4668 15.0645 3.4668C15.6022 3.4668 16.0762 3.55794 16.4863 3.74023C16.901 3.92253 17.2246 4.19824 17.457 4.56738C17.694 4.93197 17.8125 5.38997 17.8125 5.94141V9.38672C17.8125 9.63281 17.833 9.89486 17.874 10.1729C17.9196 10.4508 17.9857 10.6901 18.0723 10.8906V11H16.7529C16.6891 10.8542 16.639 10.6605 16.6025 10.4189C16.5661 10.1729 16.5479 9.94499 16.5479 9.73535ZM16.7666 6.51562L16.7803 7.4043H15.502C15.1419 7.4043 14.8206 7.43392 14.5381 7.49316C14.2555 7.54785 14.0186 7.63216 13.8271 7.74609C13.6357 7.86003 13.4899 8.00358 13.3896 8.17676C13.2894 8.34538 13.2393 8.54362 13.2393 8.77148C13.2393 9.00391 13.2917 9.21582 13.3965 9.40723C13.5013 9.59863 13.6585 9.7513 13.8682 9.86523C14.0824 9.97461 14.3444 10.0293 14.6543 10.0293C15.0417 10.0293 15.3835 9.94727 15.6797 9.7832C15.9759 9.61914 16.2106 9.41862 16.3838 9.18164C16.5615 8.94466 16.6572 8.71452 16.6709 8.49121L17.2109 9.09961C17.179 9.29102 17.0924 9.50293 16.9512 9.73535C16.8099 9.96777 16.6208 10.1911 16.3838 10.4053C16.1514 10.6149 15.8734 10.7904 15.5498 10.9316C15.2308 11.0684 14.8708 11.1367 14.4697 11.1367C13.9684 11.1367 13.5286 11.0387 13.1504 10.8428C12.7767 10.6468 12.485 10.3848 12.2754 10.0566C12.0703 9.72396 11.9678 9.35254 11.9678 8.94238C11.9678 8.5459 12.0452 8.19727 12.2002 7.89648C12.3551 7.59115 12.5785 7.33822 12.8701 7.1377C13.1618 6.93262 13.5127 6.77767 13.9229 6.67285C14.333 6.56803 14.791 6.51562 15.2969 6.51562H16.7666ZM21.7705 10.2344L23.8281 3.60352H25.1816L22.2148 12.1416C22.1465 12.3239 22.0553 12.5199 21.9414 12.7295C21.832 12.9437 21.6908 13.1465 21.5176 13.3379C21.3444 13.5293 21.1348 13.6842 20.8887 13.8027C20.6471 13.9258 20.3577 13.9873 20.0205 13.9873C19.9202 13.9873 19.7926 13.9736 19.6377 13.9463C19.4827 13.9189 19.3734 13.8962 19.3096 13.8779L19.3027 12.8525C19.3392 12.8571 19.3962 12.8617 19.4736 12.8662C19.5557 12.8753 19.6126 12.8799 19.6445 12.8799C19.9316 12.8799 20.1755 12.8411 20.376 12.7637C20.5765 12.6908 20.7451 12.5654 20.8818 12.3877C21.0231 12.2145 21.1439 11.9753 21.2441 11.6699L21.7705 10.2344ZM20.2598 3.60352L22.1807 9.3457L22.5088 10.6787L21.5996 11.1436L18.8789 3.60352H20.2598ZM33.8154 0.992188V11H32.5508V2.57129L30.001 3.50098V2.35938L33.6172 0.992188H33.8154ZM43.7822 5.23047V6.74805C43.7822 7.5638 43.7093 8.25195 43.5635 8.8125C43.4176 9.37305 43.208 9.82422 42.9346 10.166C42.6611 10.5078 42.3307 10.7562 41.9434 10.9111C41.5605 11.0615 41.1276 11.1367 40.6445 11.1367C40.2617 11.1367 39.9085 11.0889 39.585 10.9932C39.2614 10.8975 38.9697 10.7448 38.71 10.5352C38.4548 10.321 38.236 10.043 38.0537 9.70117C37.8714 9.35938 37.7324 8.94466 37.6367 8.45703C37.541 7.9694 37.4932 7.39974 37.4932 6.74805V5.23047C37.4932 4.41471 37.5661 3.73112 37.7119 3.17969C37.8623 2.62826 38.0742 2.1862 38.3477 1.85352C38.6211 1.51628 38.9492 1.27474 39.332 1.12891C39.7194 0.983073 40.1523 0.910156 40.6309 0.910156C41.0182 0.910156 41.3737 0.958008 41.6973 1.05371C42.0254 1.14486 42.3171 1.29297 42.5723 1.49805C42.8275 1.69857 43.0439 1.96745 43.2217 2.30469C43.404 2.63737 43.543 3.04525 43.6387 3.52832C43.7344 4.01139 43.7822 4.57878 43.7822 5.23047ZM42.5107 6.95312V5.01855C42.5107 4.57194 42.4834 4.18001 42.4287 3.84277C42.3786 3.50098 42.3034 3.20931 42.2031 2.96777C42.1029 2.72624 41.9753 2.53027 41.8203 2.37988C41.6699 2.22949 41.4945 2.12012 41.2939 2.05176C41.098 1.97884 40.877 1.94238 40.6309 1.94238C40.3301 1.94238 40.0635 1.99935 39.8311 2.11328C39.5986 2.22266 39.4027 2.39811 39.2432 2.63965C39.0882 2.88118 38.9697 3.19792 38.8877 3.58984C38.8057 3.98177 38.7646 4.45801 38.7646 5.01855V6.95312C38.7646 7.39974 38.7897 7.79395 38.8398 8.13574C38.8945 8.47754 38.9743 8.77376 39.0791 9.02441C39.1839 9.27051 39.3115 9.47331 39.4619 9.63281C39.6123 9.79232 39.7855 9.91081 39.9814 9.98828C40.182 10.0612 40.403 10.0977 40.6445 10.0977C40.9544 10.0977 41.2256 10.0384 41.458 9.91992C41.6904 9.80143 41.8841 9.61686 42.0391 9.36621C42.1986 9.111 42.3171 8.78516 42.3945 8.38867C42.472 7.98763 42.5107 7.50911 42.5107 6.95312ZM46.6943 9.49609V10.5146C46.6943 10.9294 46.5895 11.3669 46.3799 11.8271C46.1702 12.292 45.8763 12.6794 45.498 12.9893L44.7803 12.4902C44.9261 12.2897 45.0492 12.0846 45.1494 11.875C45.2497 11.6699 45.3249 11.4557 45.375 11.2324C45.4297 11.0137 45.457 10.7812 45.457 10.5352V9.49609H46.6943ZM58.165 9.96094V11H51.6504V10.0908L54.9111 6.46094C55.3122 6.01432 55.6221 5.63607 55.8408 5.32617C56.0641 5.01172 56.2191 4.73145 56.3057 4.48535C56.3968 4.2347 56.4424 3.97949 56.4424 3.71973C56.4424 3.3916 56.374 3.09538 56.2373 2.83105C56.1051 2.56217 55.9092 2.34798 55.6494 2.18848C55.3896 2.02897 55.0752 1.94922 54.7061 1.94922C54.264 1.94922 53.8949 2.03581 53.5986 2.20898C53.307 2.3776 53.0882 2.61458 52.9424 2.91992C52.7965 3.22526 52.7236 3.57617 52.7236 3.97266H51.459C51.459 3.41211 51.582 2.89941 51.8281 2.43457C52.0742 1.96973 52.4388 1.60059 52.9219 1.32715C53.4049 1.04915 53.9997 0.910156 54.7061 0.910156C55.335 0.910156 55.8727 1.02181 56.3193 1.24512C56.766 1.46387 57.1077 1.77376 57.3447 2.1748C57.5863 2.57129 57.707 3.03613 57.707 3.56934C57.707 3.861 57.6569 4.15723 57.5566 4.45801C57.4609 4.75423 57.3265 5.05046 57.1533 5.34668C56.9847 5.6429 56.7865 5.93457 56.5586 6.22168C56.3353 6.50879 56.096 6.79134 55.8408 7.06934L53.1748 9.96094H58.165ZM65.7666 5.23047V6.74805C65.7666 7.5638 65.6937 8.25195 65.5479 8.8125C65.402 9.37305 65.1924 9.82422 64.9189 10.166C64.6455 10.5078 64.3151 10.7562 63.9277 10.9111C63.5449 11.0615 63.112 11.1367 62.6289 11.1367C62.2461 11.1367 61.8929 11.0889 61.5693 10.9932C61.2458 10.8975 60.9541 10.7448 60.6943 10.5352C60.4391 10.321 60.2204 10.043 60.0381 9.70117C59.8558 9.35938 59.7168 8.94466 59.6211 8.45703C59.5254 7.9694 59.4775 7.39974 59.4775 6.74805V5.23047C59.4775 4.41471 59.5505 3.73112 59.6963 3.17969C59.8467 2.62826 60.0586 2.1862 60.332 1.85352C60.6055 1.51628 60.9336 1.27474 61.3164 1.12891C61.7038 0.983073 62.1367 0.910156 62.6152 0.910156C63.0026 0.910156 63.3581 0.958008 63.6816 1.05371C64.0098 1.14486 64.3014 1.29297 64.5566 1.49805C64.8118 1.69857 65.0283 1.96745 65.2061 2.30469C65.3883 2.63737 65.5273 3.04525 65.623 3.52832C65.7188 4.01139 65.7666 4.57878 65.7666 5.23047ZM64.4951 6.95312V5.01855C64.4951 4.57194 64.4678 4.18001 64.4131 3.84277C64.363 3.50098 64.2878 3.20931 64.1875 2.96777C64.0872 2.72624 63.9596 2.53027 63.8047 2.37988C63.6543 2.22949 63.4788 2.12012 63.2783 2.05176C63.0824 1.97884 62.8613 1.94238 62.6152 1.94238C62.3145 1.94238 62.0479 1.99935 61.8154 2.11328C61.583 2.22266 61.387 2.39811 61.2275 2.63965C61.0726 2.88118 60.9541 3.19792 60.8721 3.58984C60.79 3.98177 60.749 4.45801 60.749 5.01855V6.95312C60.749 7.39974 60.7741 7.79395 60.8242 8.13574C60.8789 8.47754 60.9587 8.77376 61.0635 9.02441C61.1683 9.27051 61.2959 9.47331 61.4463 9.63281C61.5967 9.79232 61.7699 9.91081 61.9658 9.98828C62.1663 10.0612 62.3874 10.0977 62.6289 10.0977C62.9388 10.0977 63.21 10.0384 63.4424 9.91992C63.6748 9.80143 63.8685 9.61686 64.0234 9.36621C64.1829 9.111 64.3014 8.78516 64.3789 8.38867C64.4564 7.98763 64.4951 7.50911 64.4951 6.95312ZM73.915 9.96094V11H67.4004V10.0908L70.6611 6.46094C71.0622 6.01432 71.3721 5.63607 71.5908 5.32617C71.8141 5.01172 71.9691 4.73145 72.0557 4.48535C72.1468 4.2347 72.1924 3.97949 72.1924 3.71973C72.1924 3.3916 72.124 3.09538 71.9873 2.83105C71.8551 2.56217 71.6592 2.34798 71.3994 2.18848C71.1396 2.02897 70.8252 1.94922 70.4561 1.94922C70.014 1.94922 69.6449 2.03581 69.3486 2.20898C69.057 2.3776 68.8382 2.61458 68.6924 2.91992C68.5465 3.22526 68.4736 3.57617 68.4736 3.97266H67.209C67.209 3.41211 67.332 2.89941 67.5781 2.43457C67.8242 1.96973 68.1888 1.60059 68.6719 1.32715C69.1549 1.04915 69.7497 0.910156 70.4561 0.910156C71.085 0.910156 71.6227 1.02181 72.0693 1.24512C72.516 1.46387 72.8577 1.77376 73.0947 2.1748C73.3363 2.57129 73.457 3.03613 73.457 3.56934C73.457 3.861 73.4069 4.15723 73.3066 4.45801C73.2109 4.75423 73.0765 5.05046 72.9033 5.34668C72.7347 5.6429 72.5365 5.93457 72.3086 6.22168C72.0853 6.50879 71.846 6.79134 71.5908 7.06934L68.9248 9.96094H73.915ZM81.79 9.96094V11H75.2754V10.0908L78.5361 6.46094C78.9372 6.01432 79.2471 5.63607 79.4658 5.32617C79.6891 5.01172 79.8441 4.73145 79.9307 4.48535C80.0218 4.2347 80.0674 3.97949 80.0674 3.71973C80.0674 3.3916 79.999 3.09538 79.8623 2.83105C79.7301 2.56217 79.5342 2.34798 79.2744 2.18848C79.0146 2.02897 78.7002 1.94922 78.3311 1.94922C77.889 1.94922 77.5199 2.03581 77.2236 2.20898C76.932 2.3776 76.7132 2.61458 76.5674 2.91992C76.4215 3.22526 76.3486 3.57617 76.3486 3.97266H75.084C75.084 3.41211 75.207 2.89941 75.4531 2.43457C75.6992 1.96973 76.0638 1.60059 76.5469 1.32715C77.0299 1.04915 77.6247 0.910156 78.3311 0.910156C78.96 0.910156 79.4977 1.02181 79.9443 1.24512C80.391 1.46387 80.7327 1.77376 80.9697 2.1748C81.2113 2.57129 81.332 3.03613 81.332 3.56934C81.332 3.861 81.2819 4.15723 81.1816 4.45801C81.0859 4.75423 80.9515 5.05046 80.7783 5.34668C80.6097 5.6429 80.4115 5.93457 80.1836 6.22168C79.9603 6.50879 79.721 6.79134 79.4658 7.06934L76.7998 9.96094H81.79Z" fill="#65665C"/>
</svg>
